<svg xmlns="http://www.w3.org/2000/svg" viewBox="0 0 960 600" role="img" aria-labelledby="title desc">
  <title id="title">Old Town Courtyard House</title>
  <desc id="desc">Stylized warm courtyard house with arches, stone paving, and evening lantern light.</desc>
  <defs>
    <linearGradient id="sky2" x1="0" x2="0" y1="0" y2="1">
      <stop offset="0%" stop-color="#31486f"/>
      <stop offset="55%" stop-color="#bb6e4f"/>
      <stop offset="100%" stop-color="#e2c38f"/>
    </linearGradient>
  </defs>
  <rect width="960" height="600" fill="url(#sky2)"/>
  <rect y="360" width="960" height="240" fill="#795d49"/>
  <path d="M0 414h960v186H0z" fill="#8d735d"/>
  <g transform="translate(120 134)">
    <rect width="720" height="250" rx="16" fill="#d5b38d"/>
    <rect x="0" y="170" width="720" height="80" fill="#c19974"/>
    <g fill="#8d5e3f">
      <path d="M52 192c0-52 40-96 90-96s90 44 90 96v58H52z"/>
      <path d="M315 192c0-52 40-96 90-96s90 44 90 96v58H315z"/>
      <path d="M578 192c0-52 40-96 90-96s90 44 90 96v58H578z"/>
    </g>
    <g fill="#a8d0cb">
      <rect x="84" y="126" width="118" height="110" rx="56"/>
      <rect x="347" y="126" width="118" height="110" rx="56"/>
      <rect x="610" y="126" width="118" height="110" rx="56"/>
    </g>
  </g>
  <g transform="translate(340 388)">
    <rect width="280" height="118" rx="20" fill="#557a3c"/>
    <circle cx="58" cy="50" r="24" fill="#d1eb79"/>
    <circle cx="122" cy="72" r="16" fill="#d1eb79"/>
    <circle cx="226" cy="52" r="22" fill="#d1eb79"/>
    <rect x="40" y="78" width="200" height="18" rx="9" fill="#395325"/>
  </g>
  <g fill="#f8df8a" opacity="0.82">
    <circle cx="212" cy="208" r="10"/>
    <circle cx="478" cy="208" r="10"/>
    <circle cx="742" cy="208" r="10"/>
  </g>
</svg>
