<svg xmlns="http://www.w3.org/2000/svg" viewBox="0 0 960 600" role="img" aria-labelledby="title desc">
  <title id="title">Garden Patio Bungalow</title>
  <desc id="desc">Stylized bungalow with a garden path, tropical foliage, and a bright soft daytime palette.</desc>
  <defs>
    <linearGradient id="sky4" x1="0" x2="0" y1="0" y2="1">
      <stop offset="0%" stop-color="#cfe9d1"/>
      <stop offset="100%" stop-color="#8fbf8e"/>
    </linearGradient>
  </defs>
  <rect width="960" height="600" fill="url(#sky4)"/>
  <rect y="382" width="960" height="218" fill="#547649"/>
  <path d="M330 600c44-84 82-133 150-182 48-34 116-55 164-58 40-2 76 6 116 18v222z" fill="#dbc28f"/>
  <g transform="translate(252 186)">
    <rect x="42" y="90" width="404" height="184" rx="14" fill="#f0dec3"/>
    <path d="M0 112 246-8l244 120v34H0z" fill="#7a5f40"/>
    <rect x="80" y="132" width="86" height="82" rx="8" fill="#a1d4c6"/>
    <rect x="194" y="132" width="86" height="82" rx="8" fill="#a1d4c6"/>
    <rect x="308" y="132" width="100" height="124" rx="8" fill="#c28d64"/>
  </g>
  <g fill="#2f5b34">
    <circle cx="154" cy="224" r="64"/>
    <rect x="144" y="224" width="20" height="118" rx="10"/>
    <circle cx="108" cy="272" r="46"/>
    <circle cx="222" cy="284" r="52"/>
    <circle cx="830" cy="240" r="60"/>
    <rect x="820" y="240" width="18" height="126" rx="9"/>
    <circle cx="786" cy="286" r="42"/>
    <circle cx="882" cy="294" r="48"/>
  </g>
</svg>
