<svg xmlns="http://www.w3.org/2000/svg" viewBox="0 0 960 600" role="img" aria-labelledby="title desc">
  <title id="title">City Roofline Apartment</title>
  <desc id="desc">Stylized rooftop apartment with skyline silhouettes, neon windows, and a dusk city atmosphere.</desc>
  <defs>
    <linearGradient id="sky5" x1="0" x2="0" y1="0" y2="1">
      <stop offset="0%" stop-color="#22335d"/>
      <stop offset="48%" stop-color="#5c4d84"/>
      <stop offset="100%" stop-color="#d78f77"/>
    </linearGradient>
  </defs>
  <rect width="960" height="600" fill="url(#sky5)"/>
  <rect y="404" width="960" height="196" fill="#263243"/>
  <g fill="#192433">
    <rect x="96" y="248" width="90" height="156"/>
    <rect x="172" y="218" width="72" height="186"/>
    <rect x="238" y="278" width="66" height="126"/>
    <rect x="618" y="264" width="78" height="140"/>
    <rect x="684" y="214" width="94" height="190"/>
    <rect x="770" y="246" width="74" height="158"/>
  </g>
  <g fill="#f2d77a">
    <rect x="120" y="274" width="16" height="18"/>
    <rect x="146" y="274" width="16" height="18"/>
    <rect x="120" y="304" width="16" height="18"/>
    <rect x="196" y="248" width="18" height="18"/>
    <rect x="196" y="278" width="18" height="18"/>
    <rect x="644" y="286" width="16" height="18"/>
    <rect x="714" y="242" width="18" height="18"/>
    <rect x="744" y="242" width="18" height="18"/>
  </g>
  <g transform="translate(290 176)">
    <rect x="90" y="66" width="268" height="228" rx="16" fill="#d9d4cf"/>
    <rect x="112" y="88" width="224" height="126" rx="10" fill="#a0cbd8"/>
    <rect x="184" y="18" width="84" height="70" rx="14" fill="#40516a"/>
    <rect x="212" y="0" width="28" height="26" rx="6" fill="#40516a"/>
    <rect x="126" y="230" width="196" height="22" rx="11" fill="#b1aba5"/>
  </g>
  <path d="M0 470c112 14 206 4 298-18s176-24 272 0 184 24 390-6V600H0z" fill="#1b2737"/>
</svg>
