<svg xmlns="http://www.w3.org/2000/svg" viewBox="0 0 960 600" role="img" aria-labelledby="title desc">
  <title id="title">Ocean Glass Studio</title>
  <desc id="desc">Stylized coastal studio with large windows, water, and a bright sunset horizon.</desc>
  <defs>
    <linearGradient id="sky3" x1="0" x2="0" y1="0" y2="1">
      <stop offset="0%" stop-color="#f8dca8"/>
      <stop offset="38%" stop-color="#f89d79"/>
      <stop offset="100%" stop-color="#2d6980"/>
    </linearGradient>
    <linearGradient id="sea" x1="0" x2="0" y1="0" y2="1">
      <stop offset="0%" stop-color="#6bb7c3"/>
      <stop offset="100%" stop-color="#19506e"/>
    </linearGradient>
  </defs>
  <rect width="960" height="600" fill="url(#sky3)"/>
  <circle cx="664" cy="138" r="56" fill="#fff2bf" opacity="0.92"/>
  <rect y="324" width="960" height="276" fill="url(#sea)"/>
  <path d="M0 332c88 20 154 24 254 4s172-20 266 4 172 25 278 0 119-21 162-10v36H0z" fill="#84d0d6" opacity="0.5"/>
  <g transform="translate(222 158)">
    <rect width="514" height="236" rx="18" fill="#e4ecee"/>
    <rect x="24" y="24" width="466" height="188" rx="12" fill="#182f3f"/>
    <rect x="42" y="42" width="206" height="152" rx="8" fill="#9ad5dc"/>
    <rect x="266" y="42" width="206" height="152" rx="8" fill="#9ad5dc"/>
    <rect x="244" y="24" width="18" height="188" fill="#e4ecee"/>
    <rect x="70" y="224" width="370" height="12" rx="6" fill="#bcc9cc"/>
  </g>
  <path d="M130 470c78-38 152-48 244-34s186 16 282-26 160-45 304-4V600H130z" fill="#20485f"/>
</svg>
